
<svg width="12px" height="13px" viewBox="0 0 12 13" version="1.1" xmlns="http://www.w3.org/2000/svg" xmlns:xlink="http://www.w3.org/1999/xlink">
    <g id="ðŸ -Home-" stroke="none" stroke-width="1" fill="none" fill-rule="evenodd">
        <g id="Dark-mode" transform="translate(-320.000000, -64.000000)" fill="#65C466" fill-rule="nonzero">
            <g id="add-button" transform="translate(308.000000, 53.000000)">
                <g id="+" transform="translate(12.000000, 11.000000)">
                    <path d="M5.84765625,12.1523438 C6.421875,12.1523438 6.796875,11.71875 6.796875,11.1445312 L6.796875,7.03125 L10.6757812,7.03125 C11.25,7.03125 11.6835938,6.65625 11.6835938,6.08203125 C11.6835938,5.5078125 11.25,5.1328125 10.6757812,5.1328125 L6.796875,5.1328125 L6.796875,1.0078125 C6.796875,0.43359375 6.421875,0 5.84765625,0 C5.2734375,0 4.8984375,0.43359375 4.8984375,1.0078125 L4.8984375,5.1328125 L1.0078125,5.1328125 C0.43359375,5.1328125 0,5.5078125 0,6.08203125 C0,6.65625 0.43359375,7.03125 1.0078125,7.03125 L4.8984375,7.03125 L4.8984375,11.1445312 C4.8984375,11.71875 5.2734375,12.1523438 5.84765625,12.1523438 Z"></path>
                </g>
            </g>
        </g>
    </g>
</svg>