
<svg width="20px" height="16px" viewBox="0 0 16 16" version="1.1" xmlns="http://www.w3.org/2000/svg" xmlns:xlink="http://www.w3.org/1999/xlink">
    <g id="ðŸ -Home-" stroke="none" stroke-width="1" fill="none" fill-rule="evenodd">
        <g id="Dark-mode" transform="translate(-45.000000, -62.000000)" fill="#888B94" fill-rule="nonzero">
            <g id="search-bar" transform="translate(30.000000, 49.000000)">
                <g id="Group-4" transform="translate(15.000000, 10.000000)">
                    <path d="M6.50047547,3 C10.0913631,3 13.0009509,5.83813747 13.0009509,9.34084419 C13.0009509,10.8132614 12.4884135,12.1667877 11.6258504,13.2429022 L11.6258504,13.2429022 L12.1352626,13.2429022 C12.3352773,13.2429022 12.5259162,13.3191142 12.6665515,13.456296 L12.6665515,13.456296 L15.7824044,16.4956333 C16.0730507,16.7821907 16.0730507,17.2455601 15.7792792,17.5321174 L15.7792792,17.5321174 L14.8948395,18.3948381 C14.6041932,18.6813954 14.1291585,18.6813954 13.835387,18.3948381 L13.835387,18.3948381 L10.7195341,15.3555007 C10.5788988,15.218319 10.5007681,15.0323616 10.5007681,14.8372587 L10.5007681,14.8372587 L10.5007681,14.340356 C9.39756238,15.1817372 8.00996088,15.6816884 6.50047547,15.6816884 C2.90958782,15.6816884 0,12.8435509 0,9.34084419 C0,5.83813747 2.90958782,3 6.50047547,3 Z M6.48543689,5.42481648 C4.27293689,5.42481648 2.48543689,7.21544148 2.48543689,9.42481648 C2.48543689,11.6373165 4.27606189,13.4248165 6.48543689,13.4248165 C8.69793689,13.4248165 10.4854369,11.6341915 10.4854369,9.42481648 C10.4854369,7.21231648 8.69481189,5.42481648 6.48543689,5.42481648 Z" id="Shape"></path>
                </g>
            </g>
        </g>
    </g>
</svg>